<?xml version="1.0" encoding="UTF-8"?>
<svg width="94px" height="94px" viewBox="0 0 94 94" version="1.1" xmlns="http://www.w3.org/2000/svg" xmlns:xlink="http://www.w3.org/1999/xlink">
    <!-- Generator: Sketch 59.1 (86144) - https://sketch.com -->
    <title>AppLogo</title>
    <desc>Created with Sketch.</desc>
    <defs>
        <filter x="-7.2%" y="-7.2%" width="114.4%" height="114.4%" filterUnits="objectBoundingBox" id="filter-1">
            <feOffset dx="0" dy="1" in="SourceAlpha" result="shadowOffsetOuter1"></feOffset>
            <feGaussianBlur stdDeviation="1" in="shadowOffsetOuter1" result="shadowBlurOuter1"></feGaussianBlur>
            <feColorMatrix values="0 0 0 0 0   0 0 0 0 0   0 0 0 0 0  0 0 0 0.5 0" type="matrix" in="shadowBlurOuter1" result="shadowMatrixOuter1"></feColorMatrix>
            <feMerge>
                <feMergeNode in="shadowMatrixOuter1"></feMergeNode>
                <feMergeNode in="SourceGraphic"></feMergeNode>
            </feMerge>
        </filter>
        <polyline id="path-2" points="7.10542736e-14 0.0652896725 11.9329888 0.0652896725 11.9329888 54 7.10542736e-14 54"></polyline>
        <polyline id="path-4" points="-1.81188398e-12 0.0828308351 7.44120536 0.0828308351 7.44120536 63 -1.81188398e-12 63"></polyline>
    </defs>
    <g id="Page-1" stroke="none" stroke-width="1" fill="none" fill-rule="evenodd">
        <g id="Splash-screen" transform="translate(-142.000000, -192.000000)">
            <g id="AppLogo" filter="url(#filter-1)" transform="translate(144.000000, 193.000000)">
                <rect id="Background" fill="#DF4937" x="0" y="0" width="90" height="90" rx="20"></rect>
                <g id="Oval-28-+-Oval-30-+-Page-1-+-Page-1" transform="translate(3.750000, 9.000000)">
                    <g id="Oval-28-+-Oval-30" transform="translate(21.000000, 0.000000)">
                        <path d="M20.25,60 C34.4618182,42.9970878 40.5,32.9255667 40.5,21.2110354 C40.5,9.49650401 31.4337662,0 20.25,0 C9.06623382,0 0,9.49650401 0,21.2110354 C0,32.9255667 5.89090909,42.9970878 20.25,60 Z" id="Oval-28" fill="#FFFFFF"></path>
                        <path d="M20.5714286,29.25 C25.5419913,29.25 29.5714286,25.2205627 29.5714286,20.25 C29.5714286,15.2794373 25.5419913,11.25 20.5714286,11.25 C15.6008658,11.25 11.5714286,15.2794373 11.5714286,20.25 C11.5714286,25.2205627 15.6008658,29.25 20.5714286,29.25 Z" id="Oval-30" fill="#DF4937"></path>
                    </g>
                    <g id="Page-1" transform="translate(18.750000, 48.000000) rotate(-30.000000) translate(-18.750000, -48.000000) translate(12.750000, 21.000000)">
                        <mask id="mask-3" fill="white">
                            <use xlink:href="#path-2"></use>
                        </mask>
                        <g id="Clip-2"></g>
                        <path d="M7.56529641,25.0241339 L7.33095933,20.4422951 C7.33095933,20.4422951 7.35212787,20.4354941 7.38664472,20.4257006 C9.13810539,20.0249853 10.6355436,18.8931616 11.5763975,17.4827686 C12.7548245,15.7092019 10.6983751,-0.0072464849 10.6983751,-0.0072464849 L9.65949865,-0.00806260581 L9.63711663,14.7346175 L8.29567843,14.7355696 L8.31468966,-0.00955882747 L6.7955436,-0.0113270894 L6.77397056,14.7316251 L5.43280202,14.7306729 L5.45248742,-0.0148636134 L3.98875708,-0.0140474925 L3.96758854,14.7274084 L2.62372337,14.7263203 L2.64637506,-0.018128097 L1.29145371,-0.0218006411 C1.29145371,-0.0218006411 -0.809220449,15.6889349 0.364082922,17.4675344 C1.30965596,18.8946578 2.82125146,20.0384512 4.59522899,20.4314135 L4.31302674,25.8229802 L3.48367843,41.6146477 L2.97199303,51.3562749 C2.97024023,52.7888392 4.08030764,53.9120936 5.4485773,53.9114135 C5.51922899,53.91495 6.33091438,53.9114135 6.40008292,53.9096452 C7.77077955,53.9108694 8.88677955,52.787479 8.89028517,51.4067384 C8.88893685,51.3855193 7.56529641,25.0241339 7.56529641,25.0241339 Z" id="Fill-1" fill="#FFFFFF" mask="url(#mask-3)"></path>
                    </g>
                    <g id="Page-1" transform="translate(66.533494, 44.125000) scale(-1, 1) rotate(-30.000000) translate(-66.533494, -44.125000) translate(62.533494, 12.625000)">
                        <mask id="mask-5" fill="white">
                            <use xlink:href="#path-4"></use>
                        </mask>
                        <g id="Clip-2"></g>
                        <path d="M6.51808929,34.2102411 L6.3826875,30.3460612 C6.38817857,30.3480848 6.41590179,3.0877015 6.42594643,0.743615846 C6.41616964,-0.873608994 4.658625,0.798521627 3.91157143,2.33062227 C3.16210714,3.86717473 0.122866071,10.7569734 0.0881785714,17.8917572 C0.0766607143,20.5682454 0.00474107143,24.1365816 5.35714282e-05,25.8456758 C-0.0126696429,28.9019178 3.19384821,27.516997 3.173625,31.8862561 L2.90295536,36.6876116 M2.90295536,36.6876116 L1.57451786,60.4529113 C1.56527679,61.8716929 2.66483036,62.9890998 4.02661607,62.9954403 C4.09264286,62.9944959 4.89634821,62.998543 4.96425,63.000027 C6.32576786,63.0062325 7.43442857,61.8990784 7.4401875,60.5307507 C7.44166071,60.5125388 6.51808929,34.2102411 6.51808929,34.2102411" id="Fill-1" fill="#FFFFFF" mask="url(#mask-5)"></path>
                    </g>
                </g>
            </g>
        </g>
    </g>
</svg>